<?xml version="1.0" encoding="utf-8"?>
<!-- Generator: Adobe Illustrator 19.0.1, SVG Export Plug-In . SVG Version: 6.00 Build 0)  -->
<svg version="1.1" id="Layer_1" xmlns="http://www.w3.org/2000/svg" xmlns:xlink="http://www.w3.org/1999/xlink" x="0px" y="0px"
	 viewBox="115.5604858 173.1175232 680 273.9160156" style="enable-background:new 115.5604858 173.1175232 680 273.9160156;"
	 xml:space="preserve">
<style type="text/css">
	.st0{fill:#154C88;}
	.st1{fill:#DFDEDE;}
</style>
<g>
	<path class="st0" d="M270.9501343,336.8851013h-39.3554688l24.5244141-91.5258789h39.0947266l-3.1181641,11.637207h-19.0898438
		l-6.621582,24.7114258h17.2587891l-3.0131836,11.2451172h-17.2587891l-8.6533203,32.2954102h19.3505859L270.9501343,336.8851013z"
		/>
	<path class="st0" d="M327.9559937,336.8851013h-20.6582031l-0.6474609-48.8193359l-13.0810547,48.8193359h-16.7363281
		l24.5244141-91.5258789h22.8808594l0.3173828,41.7583008l11.1894531-41.7583008h16.7353516L327.9559937,336.8851013z"/>
	<path class="st0" d="M398.3573608,257.1263123h-11.2441406l-21.3710938,79.7587891h-20.0048828l21.3710938-79.7587891h-11.2451172
		l3.1533203-11.7670898h42.4941406L398.3573608,257.1263123z"/>
</g>
<g>
	<path class="st0" d="M516.6581421,320.4866638c-1.3662109,5.0996094-4.4472656,9.0292969-9.2412109,11.7890625
		c-4.7958984,2.7587891-10.453125,4.1386719-16.9746094,4.1386719c-6.5224609,0-11.4746094-1.3359375-14.8535156-4.0136719
		c-3.3808594-2.6748047-4.3759766-6.6035156-2.9863281-11.7890625l15.1572266-56.5649414
		c1.5-5.6005859,4.1962891-9.7397461,8.0917969-12.4165039c4.4238281-3.0922852,10.6503906-4.6411133,18.6777344-4.6411133
		c7.3564453,0,12.4414062,1.4638672,15.2539062,4.3901367c2.8095703,2.9277344,3.4882812,7.1074219,2.0322266,12.5419922
		L516.6581421,320.4866638z M497.671814,321.6048279l16.0917969-60.0571289
		c0.2470703-0.9223633,0.1669922-1.5952148-0.2421875-2.0136719c-0.4091797-0.4199219-1.1796875-0.6293945-2.3085938-0.6293945
		s-2.0332031,0.2094727-2.7099609,0.6293945c-0.6767578,0.418457-1.1396484,1.0913086-1.3867188,2.0136719l-16.0927734,60.0571289
		c-0.2246094,0.8388672-0.1162109,1.4892578,0.3242188,1.9521484c0.4404297,0.4619141,1.2275391,0.6914062,2.3564453,0.6914062
		s2.0166016-0.2294922,2.6621094-0.6914062C497.0116577,323.0940857,497.4472046,322.4436951,497.671814,321.6048279z"/>
	<path class="st0" d="M568.093689,335.4114685h-19.8164062l-0.6210938-46.8291016l-12.546875,46.8291016h-16.0546875
		l23.5253906-87.7954102h21.9472656l0.3046875,40.0571289l10.7324219-40.0571289h16.0546875L568.093689,335.4114685z"/>
	<path class="st0" d="M635.624939,258.9046326h-10.7861328l-20.4990234,76.5068359h-19.1894531l20.4990234-76.5068359h-10.7861328
		l3.0253906-11.2885742h40.7617188L635.624939,258.9046326z"/>
	<path class="st0" d="M668.9315796,335.4114685h-19.1894531c-0.7519531-1.2548828-1.0068359-3.1142578-0.7626953-5.5820312
		c0.2402344-2.4648438,0.96875-5.9570312,2.1787109-10.4726562l5.7802734-21.5717773
		c0.5830078-2.1733398,0.390625-3.4897461-0.5751953-3.9511719c-0.9677734-0.4584961-2.4101562-0.6894531-4.3261719-0.6894531
		l-11.3261719,42.2670898h-19.1894531l23.5253906-87.7954102h23.8300781c6.3515625,0,10.9267578,1.4150391,13.7246094,4.2451172
		c2.7949219,2.8295898,3.5683594,6.5727539,2.3203125,11.230957l-2.8085938,10.484375
		c-0.78125,2.9121094-1.8398438,5.159668-3.1767578,6.7397461c-2.4414062,2.9140625-6.5537109,5.2441406-12.3369141,6.9897461
		c4.5625,1.2568359,7.4003906,3.2241211,8.5087891,5.9033203c0.6904297,1.7592773,0.6220703,4.1870117-0.2080078,7.2861328
		l-5.0820312,18.9638672c-0.6640625,3.1005859-1.125,5.4433594-1.3828125,7.0351562
		C667.6952515,331.434906,667.8612671,334.4075623,668.9315796,335.4114685z M662.3085327,277.7430115l3.8457031-14.3491211
		c0.578125-2.1611328,0.3847656-3.4707031-0.5820312-3.9287109c-0.9677734-0.456543-2.4111328-0.6860352-4.3271484-0.6860352
		l-6.3183594,23.5786133c2.0039062,0,3.3447266-0.1225586,4.0234375-0.3735352
		C660.609314,281.3191833,661.7294312,279.9060974,662.3085327,277.7430115z"/>
	<path class="st0" d="M722.0917358,320.4866638c-1.3662109,5.0996094-4.4472656,9.0292969-9.2412109,11.7890625
		c-4.7958984,2.7587891-10.453125,4.1386719-16.9746094,4.1386719c-6.5224609,0-11.4746094-1.3359375-14.8535156-4.0136719
		c-3.3808594-2.6748047-4.3759766-6.6035156-2.9863281-11.7890625l15.1572266-56.5649414
		c1.5-5.6005859,4.1962891-9.7397461,8.0917969-12.4165039c4.4238281-3.0922852,10.6503906-4.6411133,18.6777344-4.6411133
		c7.3564453,0,12.4414062,1.4638672,15.2539062,4.3901367c2.8095703,2.9277344,3.4882812,7.1074219,2.0322266,12.5419922
		L722.0917358,320.4866638z M703.1054077,321.6048279l16.0917969-60.0571289
		c0.2470703-0.9223633,0.1669922-1.5952148-0.2421875-2.0136719c-0.4091797-0.4199219-1.1796875-0.6293945-2.3085938-0.6293945
		s-2.0332031,0.2094727-2.7099609,0.6293945c-0.6767578,0.418457-1.1396484,1.0913086-1.3867188,2.0136719l-16.0927734,60.0571289
		c-0.2246094,0.8388672-0.1162109,1.4892578,0.3242188,1.9521484c0.4404297,0.4619141,1.2275391,0.6914062,2.3564453,0.6914062
		s2.0166016-0.2294922,2.6621094-0.6914062C702.4452515,323.0940857,702.8807983,322.4436951,703.1054077,321.6048279z"/>
	<path class="st0" d="M760.8612671,335.4114685h-36.3730469l23.5253906-87.7954102h19.3144531l-20.5341797,76.6323242h17.0576172
		L760.8612671,335.4114685z"/>
</g>
<path class="st1" d="M180.2271423,321.7841797c0,0,115.5616455,36.9472656,292.7756653,37.2469482
	s223.5779419-18.1001587,223.5779419-18.1001587s-64.7672729,32.186554-304.0202637,32.186554c-94,0-152-9-152-9
	L180.2271423,321.7841797z"/>
<path class="st1" d="M795.5604858,288.6175232c0,63.7888794-152.2232056,115.5-340,115.5s-340-51.7111206-340-115.5
	s152.223175-115.5,340-115.5S795.5604858,224.8286285,795.5604858,288.6175232z M478.5907898,192.1175232
	c-172.2961121,0-311.9697266,43.2045135-311.9697266,96.5s139.6736145,96.5,311.9697266,96.5s311.969696-43.2045288,311.969696-96.5
	S650.8869019,192.1175232,478.5907898,192.1175232z"/>
<g>
	<path class="st0" d="M229.6420288,314.4612732c-1.612793,6.0185547-5.0263672,11-10.2368164,14.9433594
		c-5.7490234,4.3925781-12.515625,6.5888672-20.3056641,6.5888672h-30.2275391l29.2246094-109.0683594h30.0712891
		c7.7910156,0,13.3945312,2.1450195,16.8183594,6.4321289c3.2011719,3.9443359,3.9819336,8.9785156,2.3417969,15.0996094
		L229.6420288,314.4612732z M205.1439819,316.3382263l18.6918945-69.7587891
		c0.6982422-2.6049805,0.34375-4.3256836-1.0605469-5.1616211c-0.7573242-0.4160156-2.2763672-0.6254883-4.5556641-0.6254883
		l-21.7929688,81.3330078c2.4980469,0,4.1113281-0.1552734,4.8491211-0.4697266
		C203.1268921,320.8226013,204.4174194,319.0501404,205.1439819,316.3382263z"/>
</g>
<g>
	<path class="st0" d="M464.8475952,322.0628357c-1.1816406,4.4082031-4.3837891,8.3320312-9.6044922,11.7714844
		c-6.0126953,3.9785156-12.9423828,5.9667969-20.7890625,5.9667969c-8.3847656,0-14.7119141-1.6660156-18.9785156-4.9990234
		c-4.6123047-3.6533203-6.0380859-8.7617188-4.28125-15.3203125l19.4873047-72.7275391
		c1.9296875-7.2011719,5.3964844-12.5234375,10.40625-15.9643555c5.7939453-3.9760742,13.8544922-5.9672852,24.1748047-5.9672852
		c8.9228516,0,15.0527344,1.9912109,18.3974609,5.9672852c2.8398438,3.440918,3.46875,8.1181641,1.8847656,14.0292969
		l-5.4873047,20.4799805h-22.4150391l6.0449219-22.5585938c0.2597656-0.9726562,0.1660156-1.675293-0.2792969-2.109375
		c-0.4482422-0.4331055-1.2890625-0.6499023-2.5273438-0.6499023c-1.2363281,0-2.2226562,0.2167969-2.9570312,0.6479492
		c-0.7363281,0.4331055-1.2324219,1.1337891-1.4921875,2.1035156l-21.0800781,78.6738281
		c-0.2314453,0.8642578-0.046875,1.5400391,0.5546875,2.0234375c0.5996094,0.4873047,1.4072266,0.7285156,2.4199219,0.7285156
		c1.2373047,0,2.2011719-0.2412109,2.8964844-0.7285156c0.6914062-0.4853516,1.1542969-1.1611328,1.3867188-2.0283203
		l7.5146484-28.043457h22.4150391L464.8475952,322.0628357z"/>
</g>
<g>
	<path class="st0" d="M251.1278687,437.5716248c-1.3647461,1.1269531-3.2333984,1.5419922-5.3398438,1.5419922h-2.5209961v7.5644531
		h-4.8056641v-20.4677734h7.3266602c2.1064453,0,3.9750977,0.4150391,5.3398438,1.5429688
		c1.3642578,1.1269531,2.1357422,2.6992188,2.1357422,4.8935547
		C253.2636108,434.8421326,252.4921265,436.4143982,251.1278687,437.5716248z M247.4198608,430.481781
		c-0.5932617-0.4150391-1.2753906-0.5634766-2.3139648-0.5634766h-1.8686523v5.4873047h1.8686523
		c1.0385742,0,1.7207031-0.1484375,2.3139648-0.5634766c0.5634766-0.4150391,0.9785156-1.15625,0.9785156-2.1953125
		C248.3983765,431.6087341,247.9833374,430.8968201,247.4198608,430.481781z"/>
	<path class="st0" d="M276.9901733,446.6780701h-5.2207031l-1.4536133-4.1230469h-7.296875l-1.4536133,4.1230469h-4.9833984
		l7.7124023-20.4970703h4.9833984L276.9901733,446.6780701z M269.218689,438.8167419l-2.5512695-7.3564453l-2.5512695,7.3564453
		H269.218689z"/>
	<path class="st0" d="M287.9911499,446.6780701h-4.8056641v-20.4677734h4.8056641V446.6780701z"/>
	<path class="st0" d="M314.6849976,446.6780701h-4.9238281l-8.987793-13.8828125c0,0,0.0888672,2.4619141,0.0888672,4.6279297
		v9.2548828h-4.6870117v-20.4677734h5.1318359l8.7802734,13.7636719c0,0-0.0888672-2.3134766-0.0888672-4.4794922v-9.2841797
		h4.6865234V446.6780701z"/>
	<path class="st0" d="M336.4833374,430.0071716h-5.2802734v16.6708984h-4.8056641v-16.6708984h-5.2797852v-3.796875h15.3657227
		V430.0071716z"/>
	<path class="st0" d="M354.781189,446.6780701h-11.8652344v-20.4677734h4.7758789v16.4931641h7.0893555V446.6780701z"/>
	<path class="st0" d="M374.9188843,446.6780701h-13.5263672v-20.4677734h13.2587891v3.8261719h-8.4833984v4.1826172h8.0087891
		v3.8271484h-8.0087891v4.7460938h8.7509766V446.6780701z"/>
	<path class="st0" d="M393.7509155,445.3431091c-1.453125,1.1572266-3.3515625,1.6904297-5.546875,1.6904297
		c-2.9667969,0-5.6064453-1.5419922-7.2675781-3.0849609l2.3730469-3.5
		c1.4833984,1.5429688,3.7675781,2.5810547,5.3388672,2.5810547c1.5429688,0,2.7294922-0.7421875,2.7294922-2.1064453
		c0-1.3945312-1.5126953-1.9277344-2.4023438-2.2539062c-0.890625-0.3271484-2.4326172-0.8603516-3.1152344-1.1572266
		c-0.5039062-0.2373047-1.5419922-0.6230469-2.4326172-1.4833984c-0.8896484-0.8300781-1.6015625-2.0166016-1.6015625-3.9453125
		c0-1.9570312,0.9492188-3.5,2.1357422-4.4785156c1.1572266-0.9794922,3.0263672-1.6318359,5.3994141-1.6318359
		s5.1015625,1.1269531,6.4960938,2.5214844l-2.046875,3.3515625c-1.1865234-1.1865234-3.0253906-2.0761719-4.5683594-2.0761719
		s-2.6699219,0.59375-2.6699219,1.8388672c0,1.2460938,1.1572266,1.7207031,2.0761719,2.0771484
		c0.890625,0.3554688,2.4033203,0.8896484,3.0556641,1.15625c0.5634766,0.2080078,1.9287109,0.7421875,2.8476562,1.6611328
		c0.8603516,0.8603516,1.6015625,2.1064453,1.6015625,3.9453125
		C396.1532593,442.4065857,395.234314,444.1858826,393.7509155,445.3431091z"/>
	<path class="st0" d="M414.274353,445.3431091c-1.453125,1.1572266-3.3515625,1.6904297-5.546875,1.6904297
		c-2.9667969,0-5.6064453-1.5419922-7.2675781-3.0849609l2.3730469-3.5
		c1.4833984,1.5429688,3.7675781,2.5810547,5.3388672,2.5810547c1.5429688,0,2.7294922-0.7421875,2.7294922-2.1064453
		c0-1.3945312-1.5126953-1.9277344-2.4023438-2.2539062c-0.890625-0.3271484-2.4326172-0.8603516-3.1152344-1.1572266
		c-0.5039062-0.2373047-1.5419922-0.6230469-2.4326172-1.4833984c-0.8896484-0.8300781-1.6015625-2.0166016-1.6015625-3.9453125
		c0-1.9570312,0.9492188-3.5,2.1357422-4.4785156c1.1572266-0.9794922,3.0263672-1.6318359,5.3994141-1.6318359
		s5.1015625,1.1269531,6.4960938,2.5214844l-2.046875,3.3515625c-1.1865234-1.1865234-3.0253906-2.0761719-4.5683594-2.0761719
		s-2.6699219,0.59375-2.6699219,1.8388672c0,1.2460938,1.1572266,1.7207031,2.0761719,2.0771484
		c0.890625,0.3554688,2.4033203,0.8896484,3.0556641,1.15625c0.5634766,0.2080078,1.9287109,0.7421875,2.8476562,1.6611328
		c0.8603516,0.8603516,1.6015625,2.1064453,1.6015625,3.9453125
		C416.6766968,442.4065857,415.7577515,444.1858826,414.274353,445.3431091z"/>
	<path class="st0" d="M448.7958374,444.2454529c-1.6904297,1.4238281-4.3310547,2.4326172-7.890625,2.4326172h-6.9404297
		v-20.4677734h6.9404297c3.5595703,0,6.2001953,1.0087891,7.890625,2.4619141
		c1.7207031,1.4238281,3.3222656,3.796875,3.3222656,7.7714844
		C452.118103,440.419281,450.5165405,442.7923279,448.7958374,444.2454529z M445.4442749,431.6390076
		c-0.8603516-0.8007812-2.2841797-1.4541016-4.2714844-1.4541016h-2.4326172v12.4287109h2.4326172
		c1.9873047,0,3.4111328-0.6523438,4.2714844-1.4824219c0.8603516-0.8007812,1.8095703-2.1660156,1.8095703-4.6875
		C447.2538452,433.9231873,446.3046265,432.4690857,445.4442749,431.6390076z"/>
	<path class="st0" d="M472.7890015,446.6780701h-13.5263672v-20.4677734h13.2587891v3.8261719h-8.4833984v4.1826172h8.0087891
		v3.8271484h-8.0087891v4.7460938h8.7509766V446.6780701z"/>
	<path class="st0" d="M498.7108765,446.6780701h-4.9248047l-8.9873047-13.8828125c0,0,0.0888672,2.4619141,0.0888672,4.6279297
		v9.2548828h-4.6865234v-20.4677734h5.1308594l8.78125,13.7636719c0,0-0.0898438-2.3134766-0.0898438-4.4794922v-9.2841797h4.6875
		V446.6780701z"/>
	<path class="st0" d="M520.508728,430.0071716h-5.2802734v16.6708984h-4.8056641v-16.6708984h-5.2802734v-3.796875h15.3662109
		V430.0071716z"/>
	<path class="st0" d="M553.4276733,446.6780701h-5.5761719l-4.3007812-7.8310547h-1.5136719v7.8310547h-4.8046875v-20.4677734
		h7.3564453c2.2841797,0,4.0634766,0.4746094,5.3984375,1.453125c1.3642578,1.0087891,2.2539062,2.640625,2.2539062,4.6875
		c0,3.8857422-2.4912109,5.3984375-4.0039062,5.8730469L553.4276733,446.6780701z M546.368103,430.4524841
		c-0.5927734-0.4453125-1.3642578-0.5341797-2.4619141-0.5341797h-1.8984375v5.25h1.8984375
		c1.0976562,0,1.8691406-0.1181641,2.4619141-0.5634766c0.6230469-0.4443359,1.0380859-1.0087891,1.0380859-2.0761719
		C547.406189,431.4905701,546.9911499,430.8968201,546.368103,430.4524841z"/>
	<path class="st0" d="M573.0018921,446.6780701h-13.5263672v-20.4677734h13.2587891v3.8261719h-8.4833984v4.1826172h8.0087891
		v3.8271484h-8.0087891v4.7460938h8.7509766V446.6780701z"/>
	<path class="st0" d="M593.0800171,437.5716248c-1.3652344,1.1269531-3.2333984,1.5419922-5.3398438,1.5419922h-2.5214844v7.5644531
		h-4.8046875v-20.4677734h7.3261719c2.1064453,0,3.9746094,0.4150391,5.3398438,1.5429688
		c1.3642578,1.1269531,2.1357422,2.6992188,2.1357422,4.8935547
		C595.2157593,434.8421326,594.4442749,436.4143982,593.0800171,437.5716248z M589.3720093,430.481781
		c-0.59375-0.4150391-1.2753906-0.5634766-2.3134766-0.5634766h-1.8691406v5.4873047h1.8691406
		c1.0380859,0,1.7197266-0.1484375,2.3134766-0.5634766c0.5634766-0.4150391,0.9785156-1.15625,0.9785156-2.1953125
		C590.3505249,431.6087341,589.9354858,430.8968201,589.3720093,430.481781z"/>
	<path class="st0" d="M618.9432983,446.6780701h-5.2207031l-1.4541016-4.1230469h-7.296875l-1.4541016,4.1230469h-4.9824219
		l7.7119141-20.4970703h4.9833984L618.9432983,446.6780701z M611.1708374,438.8167419l-2.5507812-7.3564453l-2.5507812,7.3564453
		H611.1708374z"/>
	<path class="st0" d="M629.9432983,446.6780701h-4.8046875v-20.4677734h4.8046875V446.6780701z"/>
	<path class="st0" d="M654.3231812,446.6780701h-5.5761719l-4.3017578-7.8310547h-1.5126953v7.8310547h-4.8046875v-20.4677734
		h7.3564453c2.2832031,0,4.0634766,0.4746094,5.3984375,1.453125c1.3642578,1.0087891,2.2539062,2.640625,2.2539062,4.6875
		c0,3.8857422-2.4912109,5.3984375-4.0039062,5.8730469L654.3231812,446.6780701z M647.2636108,430.4524841
		c-0.5927734-0.4453125-1.3642578-0.5341797-2.4619141-0.5341797h-1.8984375v5.25h1.8984375
		c1.0976562,0,1.8691406-0.1181641,2.4619141-0.5634766c0.6230469-0.4443359,1.0380859-1.0087891,1.0380859-2.0761719
		C648.3016968,431.4905701,647.8866577,430.8968201,647.2636108,430.4524841z"/>
</g>
</svg>
