<?xml version="1.0" encoding="utf-8"?>
<!-- Generator: Adobe Illustrator 19.0.1, SVG Export Plug-In . SVG Version: 6.00 Build 0)  -->
<svg version="1.1" id="Layer_1" xmlns="http://www.w3.org/2000/svg" xmlns:xlink="http://www.w3.org/1999/xlink" x="0px" y="0px"
	 viewBox="0 0 680 231" style="enable-background:new 0 0 680 231;" xml:space="preserve">
<style type="text/css">
	.st0{fill:#154C88;}
	.st1{fill:#DFDEDE;}
</style>
<g>
	<path class="st0" d="M155.3896484,163.7675781h-39.3554688l24.5244141-91.5258789h39.0947266l-3.1181641,11.637207h-19.0898438
		l-6.621582,24.7114258h17.2587891l-3.0131836,11.2451172h-17.2587891l-8.6533203,32.2954102h19.3505859L155.3896484,163.7675781z"
		/>
	<path class="st0" d="M212.3955078,163.7675781h-20.6582031l-0.6474609-48.8193359l-13.0810547,48.8193359h-16.7363281
		l24.5244141-91.5258789h22.8808594L208.9951172,114l11.1894531-41.7583008h16.7353516L212.3955078,163.7675781z"/>
	<path class="st0" d="M282.796875,84.0087891h-11.2441406l-21.3710938,79.7587891h-20.0048828l21.3710938-79.7587891h-11.2451172
		l3.1533203-11.7670898h42.4941406L282.796875,84.0087891z"/>
</g>
<g>
	<path class="st0" d="M401.0976562,147.3691406c-1.3662109,5.0996094-4.4472656,9.0292969-9.2412109,11.7890625
		c-4.7958984,2.7587891-10.453125,4.1386719-16.9746094,4.1386719c-6.5224609,0-11.4746094-1.3359375-14.8535156-4.0136719
		c-3.3808594-2.6748047-4.3759766-6.6035156-2.9863281-11.7890625l15.1572266-56.5649414
		c1.5-5.6005859,4.1962891-9.7397461,8.0917969-12.4165039c4.4238281-3.0922852,10.6503906-4.6411133,18.6777344-4.6411133
		c7.3564453,0,12.4414062,1.4638672,15.2539062,4.3901367c2.8095703,2.9277344,3.4882812,7.1074219,2.0322266,12.5419922
		L401.0976562,147.3691406z M382.1113281,148.4873047l16.0917969-60.0571289
		c0.2470703-0.9223633,0.1669922-1.5952148-0.2421875-2.0136719c-0.4091797-0.4199219-1.1796875-0.6293945-2.3085938-0.6293945
		s-2.0332031,0.2094727-2.7099609,0.6293945c-0.6767578,0.418457-1.1396484,1.0913086-1.3867188,2.0136719l-16.0927734,60.0571289
		c-0.2246094,0.8388672-0.1162109,1.4892578,0.3242188,1.9521484c0.4404297,0.4619141,1.2275391,0.6914062,2.3564453,0.6914062
		s2.0166016-0.2294922,2.6621094-0.6914062C381.4511719,149.9765625,381.8867188,149.3261719,382.1113281,148.4873047z"/>
	<path class="st0" d="M452.5332031,162.2939453h-19.8164062l-0.6210938-46.8291016l-12.546875,46.8291016h-16.0546875
		l23.5253906-87.7954102h21.9472656l0.3046875,40.0571289l10.7324219-40.0571289h16.0546875L452.5332031,162.2939453z"/>
	<path class="st0" d="M520.0644531,85.7871094h-10.7861328l-20.4990234,76.5068359h-19.1894531l20.4990234-76.5068359h-10.7861328
		l3.0253906-11.2885742h40.7617188L520.0644531,85.7871094z"/>
	<path class="st0" d="M553.3710938,162.2939453h-19.1894531c-0.7519531-1.2548828-1.0068359-3.1142578-0.7626953-5.5820312
		c0.2402344-2.4648438,0.96875-5.9570312,2.1787109-10.4726562l5.7802734-21.5717773
		c0.5830078-2.1733398,0.390625-3.4897461-0.5751953-3.9511719c-0.9677734-0.4584961-2.4101562-0.6894531-4.3261719-0.6894531
		l-11.3261719,42.2670898h-19.1894531l23.5253906-87.7954102h23.8300781c6.3515625,0,10.9267578,1.4150391,13.7246094,4.2451172
		c2.7949219,2.8295898,3.5683594,6.5727539,2.3203125,11.230957l-2.8085938,10.484375
		c-0.78125,2.9121094-1.8398438,5.159668-3.1767578,6.7397461c-2.4414062,2.9140625-6.5537109,5.2441406-12.3369141,6.9897461
		c4.5625,1.2568359,7.4003906,3.2241211,8.5087891,5.9033203c0.6904297,1.7592773,0.6220703,4.1870117-0.2080078,7.2861328
		l-5.0820312,18.9638672c-0.6640625,3.1005859-1.125,5.4433594-1.3828125,7.0351562
		C552.1347656,158.3173828,552.3007812,161.2900391,553.3710938,162.2939453z M546.7480469,104.6254883l3.8457031-14.3491211
		c0.578125-2.1611328,0.3847656-3.4707031-0.5820312-3.9287109c-0.9677734-0.456543-2.4111328-0.6860352-4.3271484-0.6860352
		l-6.3183594,23.5786133c2.0039062,0,3.3447266-0.1225586,4.0234375-0.3735352
		C545.0488281,108.2016602,546.1689453,106.7885742,546.7480469,104.6254883z"/>
	<path class="st0" d="M606.53125,147.3691406c-1.3662109,5.0996094-4.4472656,9.0292969-9.2412109,11.7890625
		c-4.7958984,2.7587891-10.453125,4.1386719-16.9746094,4.1386719c-6.5224609,0-11.4746094-1.3359375-14.8535156-4.0136719
		c-3.3808594-2.6748047-4.3759766-6.6035156-2.9863281-11.7890625l15.1572266-56.5649414
		c1.5-5.6005859,4.1962891-9.7397461,8.0917969-12.4165039c4.4238281-3.0922852,10.6503906-4.6411133,18.6777344-4.6411133
		c7.3564453,0,12.4414062,1.4638672,15.2539062,4.3901367c2.8095703,2.9277344,3.4882812,7.1074219,2.0322266,12.5419922
		L606.53125,147.3691406z M587.5449219,148.4873047l16.0917969-60.0571289
		c0.2470703-0.9223633,0.1669922-1.5952148-0.2421875-2.0136719c-0.4091797-0.4199219-1.1796875-0.6293945-2.3085938-0.6293945
		s-2.0332031,0.2094727-2.7099609,0.6293945c-0.6767578,0.418457-1.1396484,1.0913086-1.3867188,2.0136719l-16.0927734,60.0571289
		c-0.2246094,0.8388672-0.1162109,1.4892578,0.3242188,1.9521484c0.4404297,0.4619141,1.2275391,0.6914062,2.3564453,0.6914062
		s2.0166016-0.2294922,2.6621094-0.6914062C586.8847656,149.9765625,587.3203125,149.3261719,587.5449219,148.4873047z"/>
	<path class="st0" d="M645.3007812,162.2939453h-36.3730469l23.5253906-87.7954102h19.3144531l-20.5341797,76.6323242h17.0576172
		L645.3007812,162.2939453z"/>
</g>
<path class="st1" d="M64.6666641,148.6666718c0,0,115.5616531,36.9472504,292.7756653,37.246933
	s223.5779419-18.100174,223.5779419-18.100174S516.2529907,200,277,200c-94,0-152-9-152-9L64.6666641,148.6666718z"/>
<path class="st1" d="M680,115.5C680,179.2888947,527.7767944,231,340,231S0,179.2888947,0,115.5S152.2231903,0,340,0
	S680,51.711113,680,115.5z M363.030304,19c-172.2961121,0-311.969696,43.2045212-311.969696,96.5S190.7341919,212,363.030304,212
	S675,168.7954712,675,115.5S535.326416,19,363.030304,19z"/>
<g>
	<path class="st0" d="M114.081543,141.34375c-1.612793,6.0185547-5.0263672,11-10.2368164,14.9433594
		c-5.7490234,4.3925781-12.515625,6.5888672-20.3056641,6.5888672H53.3115234L82.5361328,53.8076172h30.0712891
		c7.7910156,0,13.3945312,2.1450195,16.8183594,6.4321289c3.2011719,3.9443359,3.9819336,8.9785156,2.3417969,15.0996094
		L114.081543,141.34375z M89.5834961,143.2207031l18.6918945-69.7587891c0.6982422-2.6049805,0.34375-4.3256836-1.0605469-5.1616211
		c-0.7573242-0.4160156-2.2763672-0.6254883-4.5556641-0.6254883l-21.7929688,81.3330078
		c2.4980469,0,4.1113281-0.1552734,4.8491211-0.4697266C87.5664062,147.7050781,88.8569336,145.9326172,89.5834961,143.2207031z"/>
</g>
<g>
	<path class="st0" d="M349.2871094,148.9453125c-1.1816406,4.4082031-4.3837891,8.3320312-9.6044922,11.7714844
		c-6.0126953,3.9785156-12.9423828,5.9667969-20.7890625,5.9667969c-8.3847656,0-14.7119141-1.6660156-18.9785156-4.9990234
		c-4.6123047-3.6533203-6.0380859-8.7617188-4.28125-15.3203125l19.4873047-72.7275391
		c1.9296875-7.2011719,5.3964844-12.5234375,10.40625-15.9643555c5.7939453-3.9760742,13.8544922-5.9672852,24.1748047-5.9672852
		c8.9228516,0,15.0527344,1.9912109,18.3974609,5.9672852c2.8398438,3.440918,3.46875,8.1181641,1.8847656,14.0292969
		l-5.4873047,20.4799805h-22.4150391l6.0449219-22.5585938c0.2597656-0.9726562,0.1660156-1.675293-0.2792969-2.109375
		c-0.4482422-0.4331055-1.2890625-0.6499023-2.5273438-0.6499023c-1.2363281,0-2.2226562,0.2167969-2.9570312,0.6479492
		c-0.7363281,0.4331055-1.2324219,1.1337891-1.4921875,2.1035156l-21.0800781,78.6738281
		c-0.2314453,0.8642578-0.046875,1.5400391,0.5546875,2.0234375c0.5996094,0.4873047,1.4072266,0.7285156,2.4199219,0.7285156
		c1.2373047,0,2.2011719-0.2412109,2.8964844-0.7285156c0.6914062-0.4853516,1.1542969-1.1611328,1.3867188-2.0283203
		l7.5146484-28.043457h22.4150391L349.2871094,148.9453125z"/>
</g>
</svg>
